<svg width="200" height="200" viewBox="0 0 200 200" fill="none" xmlns="http://www.w3.org/2000/svg">
<defs>
<style>
@import url('https://fonts.googleapis.com/css2?family=Urbanist:wght@700;800&amp;display=swap');
</style>
</defs>

<!-- Three teardrop icon (scaled from original 423x301, centered) -->
<g transform="translate(10, 12) scale(0.43)">
<path d="M124.088 268.493C111.851 299.869 71.6589 308.027 47.9008 284.181C3.51069 239.716 -13.1021 171.404 11.1919 109.009C35.4859 46.6141 94.9704 6.8105 158.385 5.01755C191.075 4.12107 213.672 37.739 201.793 68.3986L123.998 268.582L124.088 268.493Z" fill="#83E4FF"/>
<path d="M229.693 268.493C217.397 299.869 177.008 308.027 153.134 284.181C108.528 239.716 91.834 171.404 116.246 109.009C140.659 46.6141 200.434 6.8105 264.157 5.01755C297.007 4.12107 319.714 37.739 307.777 68.3986L229.603 268.582L229.693 268.493Z" fill="#0062E9"/>
<path d="M331.693 268.493C319.397 299.869 279.008 308.027 255.134 284.181C210.528 239.716 193.834 171.404 218.246 109.009C242.659 46.6141 302.434 6.8105 366.157 5.01755C399.007 4.12107 421.714 37.739 409.777 68.3986L331.603 268.582L331.693 268.493Z" fill="#27A3FD"/>
</g>

<!-- "US" badge, bottom-right -->
<text x="140" y="190" font-family="'Urbanist', sans-serif" font-weight="800" font-size="36" fill="#023A84" letter-spacing="2">US</text>
</svg>
