<svg width="680" height="180" viewBox="0 0 680 180" fill="none" xmlns="http://www.w3.org/2000/svg">
<defs>
<style>
@import url('https://fonts.googleapis.com/css2?family=Urbanist:wght@600;700;800&amp;display=swap');
</style>
</defs>

<!-- Three teardrop icon (scaled from original 423x301 to ~120x85) -->
<g transform="translate(8, 10) scale(0.38)">
<path d="M124.088 268.493C111.851 299.869 71.6589 308.027 47.9008 284.181C3.51069 239.716 -13.1021 171.404 11.1919 109.009C35.4859 46.6141 94.9704 6.8105 158.385 5.01755C191.075 4.12107 213.672 37.739 201.793 68.3986L123.998 268.582L124.088 268.493Z" fill="#83E4FF"/>
<path d="M229.693 268.493C217.397 299.869 177.008 308.027 153.134 284.181C108.528 239.716 91.834 171.404 116.246 109.009C140.659 46.6141 200.434 6.8105 264.157 5.01755C297.007 4.12107 319.714 37.739 307.777 68.3986L229.603 268.582L229.693 268.493Z" fill="#0062E9"/>
<path d="M331.693 268.493C319.397 299.869 279.008 308.027 255.134 284.181C210.528 239.716 193.834 171.404 218.246 109.009C242.659 46.6141 302.434 6.8105 366.157 5.01755C399.007 4.12107 421.714 37.739 409.777 68.3986L331.603 268.582L331.693 268.493Z" fill="#27A3FD"/>
</g>

<!-- "trillet" wordmark -->
<text x="180" y="100" font-family="'Urbanist', sans-serif" font-weight="700" font-size="80" fill="#0062E9" letter-spacing="-2">trillet</text>

<!-- Separator dot -->
<circle cx="567" cy="92" r="5" fill="#023A84"/>

<!-- "US" designation -->
<text x="582" y="100" font-family="'Urbanist', sans-serif" font-weight="800" font-size="52" fill="#023A84" letter-spacing="2">US</text>

<!-- Tagline (optional, subtle) -->
<text x="182" y="140" font-family="'Urbanist', sans-serif" font-weight="400" font-size="18" fill="#9CA3AF" letter-spacing="3.5">AMERICAS PARTNER</text>
</svg>
