<svg width="841" height="218" viewBox="0 0 841 218" fill="none" xmlns="http://www.w3.org/2000/svg">
<g clip-path="url(#clip0_7382_805)">
<path d="M280.158 618.207C252.465 692.112 158.057 712.268 101.622 657.049C-3.6943 554.17 -44.6042 394.812 10.5717 248.052C65.7476 101.291 204.632 6.18072 353.586 0.0919592C430.37 -3.0574 484.497 75.2567 457.434 147.272L280.367 618.207H280.158Z" fill="#83E4FF"></path>
<path d="M518.161 612.216C485.986 684.173 390.512 698.858 337.307 640.537C237.837 531.659 206.293 370.124 270.223 227.05C334.153 83.9767 478.416 -2.66467 627.726 0.062536C704.694 1.53103 754.324 82.718 722.99 152.996L517.951 612.426L518.161 612.216Z" fill="#0062E9"></path>
<path d="M764.569 616.505C735.769 689.919 641.169 709.006 585.251 653.212C480.771 549.174 441.67 389.342 498.85 243.353C556.03 97.3648 696.037 4.23417 845.294 0.0391021C922.235 -2.05843 975.42 76.5992 947.461 148.335L764.359 616.715L764.569 616.505Z" fill="#27A3FD"></path>
</g>
<defs>
<clipPath id="clip0_7382_805">
<rect width="843" height="218" fill="white"></rect>
</clipPath>
</defs>
</svg>